<svg version="1.2" xmlns="http://www.w3.org/2000/svg" viewBox="0 0 24 24" width="24" height="24"><style>.a{fill:#fff}</style><path class="a" d="m3.2 3.5c-0.2 0.5-0.2 1.1-0.2 2.3v12.4c0 1.2 0 1.8 0.2 2.3 0.2 0.6 0.7 1.1 1.3 1.3 0.5 0.2 1.1 0.2 2.3 0.2 1.1 0 1.7 0 2.2-0.2 0.6-0.2 1.1-0.7 1.3-1.3 0.2-0.5 0.2-1.1 0.2-2.2v-12.5c0-1.2 0-1.8-0.2-2.3-0.2-0.6-0.7-1.1-1.3-1.3-0.5-0.2-1.1-0.2-2.2-0.2-1.2 0-1.8 0-2.3 0.2-0.6 0.2-1.1 0.7-1.3 1.3z"/><path class="a" d="m14.4 3.5c-0.2 0.5-0.2 1.1-0.2 2.2v12.5c0 1.2 0 1.8 0.2 2.3 0.3 0.6 0.8 1.1 1.4 1.3 0.5 0.2 1 0.2 2.2 0.2 1.2 0 1.7 0 2.2-0.2 0.6-0.2 1.1-0.7 1.4-1.3 0.2-0.5 0.2-1.1 0.2-2.2v-12.5c0-1.2 0-1.8-0.2-2.3-0.3-0.6-0.8-1.1-1.4-1.3-0.5-0.2-1-0.2-2.2-0.2-1.2 0-1.7 0-2.2 0.2-0.6 0.2-1.1 0.7-1.4 1.3z"/></svg>