<svg version="1.2" xmlns="http://www.w3.org/2000/svg" viewBox="0 0 373 373" width="373" height="373"><style>.a{fill:#5874fc}.b{fill:#e3e3e3}.c{fill:#fff}</style><path class="a" d="m185.8 373c-103.6 0-187.3-83.7-187.3-187.2 0-103.6 83.7-187.3 187.3-187.3 103.5 0 187.2 83.7 187.2 187.3 0 103.5-83.7 187.2-187.3 187.2z"/><path class="b" d="m204.7 244.8c0 18.9-15.4 34.2-34.2 34.2h-60.6c-18.9 0-34.1-15.3-34.1-34.2 0-18.9 15.2-34.2 34.1-34.2h60.6c18.8 0 34.2 15.3 34.2 34.2z"/><path class="c" d="m281.6 274.3c16.2-9.6 21.6-30.6 12-46.8l-30.4-50.5c-9.5-16.3-30.5-21.7-46.8-12.1-16.2 9.6-21.6 30.5-12.1 46.8l30.4 50.5c9.6 16.2 30.6 21.6 46.9 12.1z"/><path class="c" d="m203.6 83.8c-16.3-9.6-37.3-4.3-46.9 12l-77.6 131.7c-9.6 16.2-4.1 37.2 12.1 46.8 5.9 3.5 12.5 4.9 19 4.7h58.9q1.3 0 2.6-0.1-1 0-2 0c-44.7 0-19.8-36.7-19.8-36.7h-0.1l65.8-111.7c9.6-16.2 4.2-37.2-12-46.7z"/></svg>